<svg width="124" height="90" viewBox="0 0 123 89" fill="none" xmlns="http://www.w3.org/2000/svg">
<path d="M0 7C0 3.13401 3.13401 0 7 0H116C119.866 0 123 3.13401 123 7V82C123 85.866 119.866 89 116 89H7C3.13401 89 0 85.866 0 82V7Z" fill="#E1DDDD"/>
<rect x="28" y="25" width="94" height="64" rx="7" fill="white"/>
<path d="M38.7713 51H35.4759L40.4972 36.4545H44.4602L49.4744 51H46.179L42.5355 39.7784H42.4219L38.7713 51ZM38.5653 45.2827H46.3494V47.6832H38.5653V45.2827ZM54.2791 51.206C53.5831 51.206 52.9628 51.0852 52.4183 50.8438C51.8738 50.5975 51.4429 50.2353 51.1257 49.7571C50.8132 49.2741 50.657 48.6728 50.657 47.9531C50.657 47.3471 50.7682 46.8381 50.9908 46.4261C51.2133 46.0142 51.5163 45.6828 51.8999 45.4318C52.2834 45.1809 52.719 44.9915 53.2067 44.8636C53.6991 44.7358 54.2152 44.6458 54.755 44.5938C55.3894 44.5275 55.9008 44.4659 56.2891 44.4091C56.6773 44.3475 56.959 44.2576 57.1342 44.1392C57.3094 44.0208 57.397 43.8456 57.397 43.6136V43.571C57.397 43.1212 57.255 42.7732 56.9709 42.527C56.6915 42.2808 56.2938 42.1577 55.7777 42.1577C55.2332 42.1577 54.8 42.2784 54.478 42.5199C54.156 42.7566 53.9429 43.0549 53.8388 43.4148L51.0405 43.1875C51.1825 42.5246 51.4619 41.9517 51.8786 41.4688C52.2952 40.9811 52.8326 40.607 53.4908 40.3466C54.1536 40.0814 54.9207 39.9489 55.7919 39.9489C56.398 39.9489 56.978 40.0199 57.532 40.1619C58.0907 40.304 58.5855 40.5241 59.0163 40.8224C59.4519 41.1207 59.7952 41.5043 60.0462 41.973C60.2971 42.437 60.4226 42.9934 60.4226 43.642V51H57.5533V49.4872H57.468C57.2929 49.8281 57.0585 50.1288 56.7649 50.3892C56.4714 50.6449 56.1186 50.8461 55.7067 50.9929C55.2947 51.1349 54.8189 51.206 54.2791 51.206ZM55.1456 49.1179C55.5907 49.1179 55.9837 49.0303 56.3246 48.8551C56.6655 48.6752 56.933 48.4337 57.1271 48.1307C57.3213 47.8277 57.4183 47.4844 57.4183 47.1009V45.9432C57.3236 46.0047 57.1934 46.0616 57.0277 46.1136C56.8667 46.161 56.6844 46.206 56.4808 46.2486C56.2772 46.2865 56.0736 46.322 55.87 46.3551C55.6664 46.3835 55.4818 46.4096 55.3161 46.4332C54.9609 46.4853 54.6508 46.5682 54.3857 46.6818C54.1205 46.7955 53.9145 46.9493 53.7678 47.1435C53.621 47.3329 53.5476 47.5696 53.5476 47.8537C53.5476 48.2656 53.6967 48.5805 53.995 48.7983C54.2981 49.0114 54.6816 49.1179 55.1456 49.1179Z" fill="black"/>
<path d="M7 1H116V-1H7V1ZM122 7V82H124V7H122ZM116 88H7V90H116V88ZM1 82V7H-1V82H1ZM7 88C3.68629 88 1 85.3137 1 82H-1C-1 86.4183 2.58172 90 7 90V88ZM122 82C122 85.3137 119.314 88 116 88V90C120.418 90 124 86.4183 124 82H122ZM116 1C119.314 1 122 3.68629 122 7H124C124 2.58172 120.418 -1 116 -1V1ZM7 -1C2.58172 -1 -1 2.58172 -1 7H1C1 3.68629 3.68629 1 7 1V-1Z" fill="#DC2626" fill-opacity="0.1"/>
</svg>
