<svg width="124" height="90" viewBox="0 0 124 90" fill="none" xmlns="http://www.w3.org/2000/svg">
<rect width="124" height="90" fill="#1E1E1E"/>
<rect width="124" height="90" rx="6" fill="#D9D9D9"/>
<path d="M0 6C0 2.68629 2.68629 0 6 0H62V90H6C2.68629 90 0 87.3137 0 84V6Z" fill="#E1DDDD"/>
<path d="M62 0H118C121.314 0 124 2.68629 124 6V84C124 87.3137 121.314 90 118 90H62V0Z" fill="#504E4E"/>
<path d="M77 33C77 29.6863 79.6863 27 83 27H124V84C124 87.3137 121.314 90 118 90H77V33Z" fill="white"/>
<path d="M89.7713 52H86.4759L91.4972 37.4545H95.4602L100.474 52H97.179L93.5355 40.7784H93.4219L89.7713 52ZM89.5653 46.2827H97.3494V48.6832H89.5653V46.2827ZM102.225 52V37.4545H105.251V42.9233H105.343C105.476 42.6297 105.667 42.3314 105.918 42.0284C106.174 41.7206 106.505 41.465 106.913 41.2614C107.325 41.053 107.836 40.9489 108.447 40.9489C109.242 40.9489 109.976 41.1572 110.648 41.5739C111.321 41.9858 111.858 42.6084 112.261 43.4418C112.663 44.2704 112.864 45.3097 112.864 46.5597C112.864 47.7765 112.668 48.804 112.275 49.642C111.887 50.4754 111.356 51.1075 110.684 51.5384C110.016 51.9645 109.268 52.1776 108.44 52.1776C107.853 52.1776 107.353 52.0805 106.941 51.8864C106.534 51.6922 106.2 51.4484 105.94 51.1548C105.679 50.8565 105.48 50.5559 105.343 50.2528H105.208V52H102.225ZM105.187 46.5455C105.187 47.1941 105.277 47.7599 105.457 48.2429C105.637 48.7259 105.897 49.1023 106.238 49.3722C106.579 49.6373 106.993 49.7699 107.481 49.7699C107.973 49.7699 108.39 49.6349 108.731 49.3651C109.072 49.0904 109.33 48.7116 109.505 48.2287C109.685 47.741 109.775 47.1799 109.775 46.5455C109.775 45.9157 109.687 45.3617 109.512 44.8835C109.337 44.4053 109.079 44.0312 108.738 43.7614C108.397 43.4915 107.978 43.3565 107.481 43.3565C106.988 43.3565 106.572 43.4867 106.231 43.7472C105.895 44.0076 105.637 44.3769 105.457 44.8551C105.277 45.3333 105.187 45.8968 105.187 46.5455Z" fill="#0A0909"/>
<path d="M15 33C15 29.6863 17.6863 27 21 27H62V90H15V33Z" fill="#0C0B0B"/>
<path d="M27.7713 53H24.4759L29.4972 38.4545H33.4602L38.4744 53H35.179L31.5355 41.7784H31.4219L27.7713 53ZM27.5653 47.2827H35.3494V49.6832H27.5653V47.2827ZM40.2251 53V38.4545H43.2507V43.9233H43.343C43.4756 43.6297 43.6674 43.3314 43.9183 43.0284C44.174 42.7206 44.5054 42.465 44.9126 42.2614C45.3246 42.053 45.8359 41.9489 46.4467 41.9489C47.2422 41.9489 47.9761 42.1572 48.6484 42.5739C49.3208 42.9858 49.8582 43.6084 50.2607 44.4418C50.6631 45.2704 50.8643 46.3097 50.8643 47.5597C50.8643 48.7765 50.6679 49.804 50.2749 50.642C49.8866 51.4754 49.3563 52.1075 48.6839 52.5384C48.0163 52.9645 47.2682 53.1776 46.4396 53.1776C45.8525 53.1776 45.353 53.0805 44.9411 52.8864C44.5339 52.6922 44.2 52.4484 43.9396 52.1548C43.6792 51.8565 43.4804 51.5559 43.343 51.2528H43.2081V53H40.2251ZM43.1868 47.5455C43.1868 48.1941 43.2768 48.7599 43.4567 49.2429C43.6366 49.7259 43.897 50.1023 44.2379 50.3722C44.5788 50.6373 44.9931 50.7699 45.4808 50.7699C45.9732 50.7699 46.3899 50.6349 46.7308 50.3651C47.0717 50.0904 47.3298 49.7116 47.505 49.2287C47.6849 48.741 47.7749 48.1799 47.7749 47.5455C47.7749 46.9157 47.6873 46.3617 47.5121 45.8835C47.3369 45.4053 47.0788 45.0312 46.7379 44.7614C46.397 44.4915 45.978 44.3565 45.4808 44.3565C44.9884 44.3565 44.5717 44.4867 44.2308 44.7472C43.8946 45.0076 43.6366 45.3769 43.4567 45.8551C43.2768 46.3333 43.1868 46.8968 43.1868 47.5455Z" fill="#FCFCFC"/>
</svg>
